<svg width="64" height="64" viewBox="0 0 64 64" fill="none" xmlns="http://www.w3.org/2000/svg">
<g clip-path="url(#clip0_6248_524233)">
<path d="M32 64C49.6731 64 64 49.6731 64 32C64 14.3269 49.6731 0 32 0C14.3269 0 0 14.3269 0 32C0 49.6731 14.3269 64 32 64Z" fill="#814625"/>
<path d="M30.8066 30.3796C30.7714 30.2733 30.7468 30.1643 30.7278 30.0542C30.7191 30.0032 30.7089 29.9524 30.6974 29.902C30.6723 29.7925 30.6444 29.6836 30.6143 29.5753C31.1133 28.8477 33.4988 25.0525 30.7842 22.6167C27.7714 19.9133 24.2512 23.4567 24.2512 23.4567L24.2621 23.4724C22.6799 23.0093 20.9643 22.955 19.2952 23.4565C19.2746 23.4358 15.7659 19.9212 12.762 22.6167C9.75706 25.313 13.0019 29.6752 13.0188 29.698C12.9843 29.8005 12.9564 29.9054 12.938 30.0117C12.6129 31.8784 10.3999 32.4545 10.3999 35.7061C10.3999 38.9576 12.715 41.6321 17.4404 41.6321H19.3794C19.3881 41.644 20.1867 42.7339 21.826 42.7327C23.3478 42.7316 24.3528 41.6414 24.3615 41.6321H26.2117C30.9371 41.6321 33.2522 39.0204 33.2522 35.7061C33.2522 32.6781 31.3329 31.9702 30.8066 30.3796Z" fill="white"/>
<path d="M53.3888 26.6644C53.3888 26.6644 53.7402 23.5305 51.0689 22.8571V21.6002H49.0001V22.8257C46.1822 23.4261 46.5453 26.6644 46.5453 26.6644V27.2017C46.5453 27.2017 46.182 30.4407 49.0011 31.0405L49.0008 33.7308C46.0306 34.252 46.4059 37.5966 46.4059 37.5966V38.1339C46.4059 38.1339 46.0426 41.3722 48.8606 41.9725V43.1981H50.9294V41.9412C53.6009 41.2678 53.2493 38.1339 53.2493 38.1339C53.3661 38.1339 53.4608 38.0427 53.4608 37.9303V37.8003C53.4608 37.6878 53.3661 37.5966 53.2493 37.5966C53.2493 37.5966 53.5979 34.4899 50.964 33.7984V31.0405H50.9329C53.752 30.4407 53.3887 27.2017 53.3887 27.2017C53.5054 27.2017 53.6001 27.1105 53.6001 26.998V26.868C53.6001 26.7556 53.5055 26.6644 53.3888 26.6644ZM51.7029 37.5966H51.5136C51.3969 37.5966 51.3022 37.6878 51.3022 37.8003V37.9303C51.3022 38.0427 51.3969 38.1339 51.5136 38.1339H51.7029C51.7029 40.0779 51.0326 40.405 50.8071 40.4601C50.77 40.4691 50.734 40.4426 50.734 40.4058V39.7862C50.734 39.4436 50.5074 39.256 50.2808 39.1539C49.9943 39.0249 49.6607 39.0249 49.3743 39.1539C49.1477 39.256 48.921 39.4436 48.921 39.7862V40.4058C48.921 40.4421 48.8857 40.4692 48.8492 40.4603C48.625 40.4062 47.9522 40.0817 47.9522 38.1339V37.5966C47.9522 35.6526 48.6224 35.3255 48.848 35.2705C48.885 35.2615 48.921 35.2879 48.921 35.3247V35.9444C48.921 36.2869 49.1477 36.4746 49.3743 36.5767C49.6607 36.7056 49.9943 36.7056 50.2808 36.5767C50.5074 36.4746 50.734 36.2869 50.734 35.9444V35.3247C50.734 35.2885 50.7693 35.2613 50.8058 35.2702C51.0301 35.3243 51.7029 35.6489 51.7029 37.5966ZM51.6531 27.2017H51.8423C51.8423 29.1494 51.1696 29.4741 50.9453 29.5281C50.9088 29.537 50.8735 29.5098 50.8735 29.4736V28.8539C50.8735 28.5114 50.6469 28.3237 50.4202 28.2216C50.1338 28.0927 49.8002 28.0927 49.5137 28.2216C49.2871 28.3237 49.0605 28.5114 49.0605 28.8539V29.4736C49.0605 29.5104 49.0245 29.5368 48.9874 29.5278C48.7619 29.4728 48.0917 29.1457 48.0917 27.2017V26.6644C48.0917 24.7166 48.7644 24.3919 48.9887 24.3379C49.0252 24.3291 49.0605 24.3564 49.0605 24.3925V25.0121C49.0605 25.3547 49.2871 25.5423 49.5137 25.6444C49.8002 25.7734 50.1338 25.7734 50.4202 25.6444C50.6469 25.5423 50.8735 25.3547 50.8735 25.0121V24.3925C50.8735 24.3557 50.9095 24.3292 50.9466 24.3382C51.1721 24.3933 51.8423 24.7204 51.8423 26.6644H51.6531C51.5363 26.6644 51.4416 26.7556 51.4416 26.868V26.998C51.4416 27.1105 51.5363 27.2017 51.6531 27.2017Z" fill="white"/>
<path d="M43.036 32.1987C43.036 32.1987 43.4013 28.9416 40.5566 28.355V25.4288C43.3256 24.8038 42.9663 21.6002 42.9663 21.6002C42.9663 21.6002 41.4134 21.6002 41.4198 21.6002C41.4198 23.548 40.7471 23.8726 40.5228 23.9266C40.4863 23.9355 40.451 23.9082 40.451 23.8721V23.2524C40.451 22.9099 40.2244 22.7223 39.9977 22.6202C39.7113 22.4912 39.3777 22.4912 39.0912 22.6202C38.8646 22.7223 38.638 22.9099 38.638 23.2524V23.8721C38.638 23.9089 38.602 23.9354 38.5649 23.9264C38.3394 23.8713 37.6692 23.5442 37.6692 21.6002C37.6757 21.6002 36.1227 21.6002 36.1227 21.6002C36.1227 21.6002 35.7499 24.9246 38.6908 25.4611V28.351C35.8255 28.927 36.1924 32.1985 36.1924 32.1985V32.7358C36.1924 32.7358 35.8255 36.0074 38.6908 36.5834V39.339C35.7499 39.8756 36.1227 43.1998 36.1227 43.1998C36.1227 43.1998 37.6756 43.1998 37.6692 43.1998C37.6692 41.2521 38.3419 40.9274 38.5662 40.8734C38.6027 40.8645 38.638 40.8917 38.638 40.9279V41.5476C38.638 41.8901 38.8646 42.0778 39.0912 42.1799C39.3777 42.3088 39.7113 42.3088 39.9977 42.1799C40.2244 42.0778 40.451 41.8901 40.451 41.5476V40.9279C40.451 40.8911 40.487 40.8647 40.5241 40.8737C40.7496 40.9287 41.4198 41.2558 41.4198 43.1998C41.4133 43.1998 42.9663 43.1998 42.9663 43.1998C42.9663 43.1998 43.3256 39.9962 40.5566 39.3712V36.5794C43.4013 35.9927 43.036 32.7357 43.036 32.7357C43.1528 32.7357 43.2475 32.6445 43.2475 32.5321V32.402C43.2475 32.2896 43.1528 32.1987 43.036 32.1987ZM41.3003 32.736H41.4895C41.4895 34.6837 40.8168 35.0084 40.5925 35.0624C40.556 35.0713 40.5207 35.0441 40.5207 35.0079V34.3882C40.5207 34.0457 40.2941 33.858 40.0675 33.7559C39.781 33.627 39.4474 33.627 39.161 33.7559C38.9343 33.858 38.7077 34.0457 38.7077 34.3882V35.0079C38.7077 35.0447 38.6717 35.0711 38.6346 35.0621C38.4091 35.007 37.7389 34.68 37.7389 32.736V32.1987C37.7389 30.2509 38.4116 29.9262 38.6359 29.8722C38.6724 29.8634 38.7077 29.8906 38.7077 29.9268V30.5464C38.7077 30.889 38.9343 31.0766 39.161 31.1787C39.4474 31.3077 39.781 31.3077 40.0675 31.1787C40.2941 31.0766 40.5207 30.889 40.5207 30.5464V29.9268C40.5207 29.89 40.5567 29.8635 40.5938 29.8725C40.8193 29.9276 41.4895 30.2547 41.4895 32.1987H41.3003C41.1836 32.1987 41.0889 32.2899 41.0889 32.4023V32.5323C41.0889 32.6448 41.1836 32.736 41.3003 32.736Z" fill="white"/>
</g>
<defs>
<clipPath id="clip0_6248_524233">
<rect width="64" height="64" fill="white"/>
</clipPath>
</defs>
</svg>
